<svg xmlns="http://www.w3.org/2000/svg" viewBox="0 0 1200 630" width="1200" height="630">
  <defs>
    <linearGradient id="bg" x1="0" y1="0" x2="1" y2="1">
      <stop offset="0%" stop-color="#0a0a0a"></stop>
      <stop offset="100%" stop-color="#15191a"></stop>
    </linearGradient>
    <pattern id="grid" width="40" height="40" patternUnits="userSpaceOnUse">
      <path d="M 40 0 L 0 0 0 40" fill="none" stroke="#1a1f1c" stroke-width="1"></path>
    </pattern>
  </defs>
  <rect width="1200" height="630" fill="url(#bg)"></rect>
  <rect width="1200" height="630" fill="url(#grid)"></rect>

  
  <rect x="80" y="80" width="1040" height="470" rx="14" fill="#0d1117" stroke="#1c232b" stroke-width="1"></rect>
  <rect x="80" y="80" width="1040" height="42" rx="14" fill="#15191a"></rect>
  <rect x="80" y="108" width="1040" height="14" fill="#15191a"></rect>
  <circle cx="108" cy="101" r="6" fill="#ff5f57"></circle>
  <circle cx="130" cy="101" r="6" fill="#febc2e"></circle>
  <circle cx="152" cy="101" r="6" fill="#28c840"></circle>
  <text x="600" y="106" text-anchor="middle" font-family="ui-monospace, &#39;JetBrains Mono&#39;, monospace" font-size="13" fill="#5a6065">hkumar@portfolio: ~ — zsh</text>

  
  <text x="120" y="180" font-family="ui-monospace, &#39;JetBrains Mono&#39;, monospace" font-size="22" fill="#7fa650">$</text>
  <text x="148" y="180" font-family="ui-monospace, &#39;JetBrains Mono&#39;, monospace" font-size="22" fill="#e6e6e6">whoami</text>

  <text x="120" y="260" font-family="Inter, system-ui, sans-serif" font-size="68" font-weight="700" fill="#e6e6e6">Hemant Kumar</text>
  <text x="120" y="310" font-family="ui-monospace, &#39;JetBrains Mono&#39;, monospace" font-size="24" fill="#7fa650">lead mobile engineer · react native</text>

  <text x="120" y="380" font-family="ui-monospace, &#39;JetBrains Mono&#39;, monospace" font-size="20" fill="#9aa19f">› shipping production iOS + Android · 200+ brands · 50k+ users</text>
  <text x="120" y="412" font-family="ui-monospace, &#39;JetBrains Mono&#39;, monospace" font-size="20" fill="#9aa19f">› full-stack · architecture · RN new arch · build pipelines</text>

  
  <g font-family="ui-monospace, &#39;JetBrains Mono&#39;, monospace" font-size="14">
    <rect x="120" y="460" width="118" height="36" rx="6" fill="#1f2a1a" stroke="#2e4528" stroke-width="1"></rect>
    <circle cx="138" cy="478" r="4" fill="#c8e6a8"></circle>
    <text x="150" y="483" fill="#c8e6a8">terminal</text>

    <rect x="248" y="460" width="80" height="36" rx="6" fill="transparent" stroke="#2a3038" stroke-width="1"></rect>
    <text x="264" y="483" fill="#9aa19f">○ ide</text>

    <rect x="338" y="460" width="116" height="36" rx="6" fill="transparent" stroke="#2a3038" stroke-width="1"></rect>
    <text x="354" y="483" fill="#9aa19f">○ monitor</text>
  </g>

  <text x="1080" y="488" text-anchor="end" font-family="ui-monospace, &#39;JetBrains Mono&#39;, monospace" font-size="14" fill="#5a6065">three takes · one portfolio</text>

  
  <circle cx="1060" cy="100" r="5" fill="#3fb950"></circle>
  <text x="1078" y="105" font-family="Inter, system-ui, sans-serif" font-size="13" font-weight="500" fill="#3fb950">OPEN TO WORK</text>
</svg>