<svg xmlns="http://www.w3.org/2000/svg" width="1200" height="630" viewBox="0 0 1200 630"><defs><linearGradient id="bg" x1="0" x2="1" y1="0" y2="1"><stop offset="0%" stop-color="#0a0a0a"/><stop offset="100%" stop-color="#15191a"/></linearGradient><pattern id="grid" width="40" height="40" patternUnits="userSpaceOnUse"><path fill="none" stroke="#1a1f1c" stroke-width="1" d="M 40 0 L 0 0 0 40"/></pattern></defs><rect width="1200" height="630" fill="url(#bg)"/><rect width="1200" height="630" fill="url(#grid)"/><rect width="1040" height="470" x="80" y="80" fill="#0d1117" stroke="#1c232b" stroke-width="1" rx="14"/><rect width="1040" height="42" x="80" y="80" fill="#15191a" rx="14"/><rect width="1040" height="14" x="80" y="108" fill="#15191a"/><circle cx="108" cy="101" r="6" fill="#ff5f57"/><circle cx="130" cy="101" r="6" fill="#febc2e"/><circle cx="152" cy="101" r="6" fill="#28c840"/><text x="600" y="106" fill="#5a6065" font-family="ui-monospace, 'JetBrains Mono', monospace" font-size="13" text-anchor="middle">hkumar@portfolio: ~ — zsh</text><text x="120" y="180" fill="#7fa650" font-family="ui-monospace, 'JetBrains Mono', monospace" font-size="22">$</text><text x="148" y="180" fill="#e6e6e6" font-family="ui-monospace, 'JetBrains Mono', monospace" font-size="22">whoami</text><text x="120" y="260" fill="#e6e6e6" font-family="Inter, system-ui, sans-serif" font-size="68" font-weight="700">Hemant Kumar</text><text x="120" y="310" fill="#7fa650" font-family="ui-monospace, 'JetBrains Mono', monospace" font-size="24">lead mobile engineer · react native</text><text x="120" y="380" fill="#9aa19f" font-family="ui-monospace, 'JetBrains Mono', monospace" font-size="20">› shipping production iOS + Android · 200+ brands · 50k+ users</text><text x="120" y="412" fill="#9aa19f" font-family="ui-monospace, 'JetBrains Mono', monospace" font-size="20">› full-stack · architecture · RN new arch · build pipelines</text><g font-family="ui-monospace, 'JetBrains Mono', monospace" font-size="14"><rect width="118" height="36" x="120" y="460" fill="#1f2a1a" stroke="#2e4528" stroke-width="1" rx="6"/><circle cx="138" cy="478" r="4" fill="#c8e6a8"/><text x="150" y="483" fill="#c8e6a8">terminal</text><rect width="80" height="36" x="248" y="460" fill="transparent" stroke="#2a3038" stroke-width="1" rx="6"/><text x="264" y="483" fill="#9aa19f">○ ide</text><rect width="116" height="36" x="338" y="460" fill="transparent" stroke="#2a3038" stroke-width="1" rx="6"/><text x="354" y="483" fill="#9aa19f">○ monitor</text></g><text x="1080" y="488" fill="#5a6065" font-family="ui-monospace, 'JetBrains Mono', monospace" font-size="14" text-anchor="end">three takes · one portfolio</text><circle cx="1060" cy="100" r="5" fill="#3fb950"/><text x="1078" y="105" fill="#3fb950" font-family="Inter, system-ui, sans-serif" font-size="13" font-weight="500">OPEN TO WORK</text></svg>