<svg xmlns="http://www.w3.org/2000/svg" width="880" height="849" fill="none" viewBox="0 0 880 849"><rect width="850" height="819" x="15" y="15" stroke="#0780F8" stroke-width="30" rx="15"/><path fill="#0780F8" d="M313.547 368.82C285.422 368.82 259.055 384.25 234.445 415.109V558.664C234.445 564.523 232.297 569.602 228 573.898C223.703 578.195 218.625 580.344 212.766 580.344C206.906 580.344 201.828 578.195 197.531 573.898C193.234 569.602 191.086 564.523 191.086 558.664V246.945C191.086 240.695 193.039 235.617 196.945 231.711C201.242 227.414 206.516 225.266 212.766 225.266C218.625 225.266 223.703 227.414 228 231.711C232.297 235.617 234.445 240.695 234.445 246.945V372.922C247.336 359.641 258.469 350.07 267.844 344.211C285.812 333.664 303 328.391 319.406 328.391C336.203 328.391 349.875 330.93 360.422 336.008C370.969 340.695 379.953 347.531 387.375 356.516C402.219 374.094 409.641 395.969 409.641 422.141V558.664C409.641 564.523 407.492 569.602 403.195 573.898C398.898 578.195 393.82 580.344 387.961 580.344C382.102 580.344 377.023 578.195 372.727 573.898C368.43 569.602 366.281 564.523 366.281 558.664V426.828C366.281 408.859 362.18 394.797 353.977 384.641C345.773 374.094 332.297 368.82 313.547 368.82ZM685.617 546.359C688.742 550.266 690.305 555.148 690.305 561.008C690.305 566.477 688.156 571.164 683.859 575.07C679.953 578.586 675.461 580.344 670.383 580.344C662.57 580.344 655.93 577.414 650.461 571.555L567.844 459.055L526.242 497.141V558.664C526.242 564.523 524.094 569.602 519.797 573.898C515.5 578.195 510.422 580.344 504.562 580.344C498.703 580.344 493.625 578.195 489.328 573.898C485.031 569.602 482.883 564.523 482.883 558.664V246.945C482.883 241.086 484.836 236.008 488.742 231.711C493.039 227.414 498.312 225.266 504.562 225.266C510.422 225.266 515.5 227.414 519.797 231.711C524.094 236.008 526.242 241.086 526.242 246.945V443.234L640.5 337.766C645.578 333.859 651.242 331.906 657.492 331.906C664.133 331.906 668.82 334.25 671.555 338.938C674.68 343.234 676.242 347.141 676.242 350.656C676.242 357.688 673.508 363.938 668.039 369.406L598.898 431.516L685.617 546.359ZM771.164 522.922C778.977 522.922 785.422 525.656 790.5 531.125C795.969 536.203 798.703 542.453 798.703 549.875V552.805C798.703 560.227 795.969 566.477 790.5 571.555C785.422 576.633 778.977 579.172 771.164 579.172H766.477C759.055 579.172 752.805 576.633 747.727 571.555C742.648 566.086 740.109 559.836 740.109 552.805V549.875C740.109 542.453 742.648 536.203 747.727 531.125C752.805 525.656 759.055 522.922 766.477 522.922H771.164Z"/></svg>