<svg width="336" height="362" viewBox="0 0 336 362" fill="none" xmlns="http://www.w3.org/2000/svg">
<path d="M25.7591 27.8686L12.5725 20.7131L12.4668 35.7156L11.5335 168.249L11.4954 173.656L16.2519 176.229L309.63 334.896L322.911 342.078V326.979V201.377L325.291 200.095L326.839 346.613L8.99994 174.156V16.0356L144.548 89.3609L141.835 90.8554L25.7591 27.8686Z" stroke="#E6F1FF" stroke-width="18"/>
<path d="M310.27 27.2295L47.9305 168.348L45.0463 166.782L326.378 15.0782V174.434L192.046 246.408L189.547 245.011L318.473 175.933L323.21 173.395L323.222 168.021L323.533 35.1766L323.569 20.0757L310.27 27.2295ZM8.99994 345.357V198.33L145.638 272.083C95.2727 300.432 60.8684 319.168 8.99994 345.357Z" stroke="#FF3040" stroke-width="18"/>
</svg>
