<svg width="551" height="550" viewBox="0 0 551 550" fill="none" xmlns="http://www.w3.org/2000/svg">
<g id="Group 5">
<g id="FavIcon">
<path id="BG" d="M550.5 275C550.5 426.878 427.378 550 275.5 550C123.622 550 0.5 426.878 0.5 275C0.5 123.122 123.622 0 275.5 0C427.378 0 550.5 123.122 550.5 275Z" fill="black"/>
<g id="Logo">
<g id="Vector 1">
<mask id="path-2-inside-1_103_26" fill="white">
<path d="M256.556 215.232L166.972 166.621L166.278 265.232L384.565 383.288V285.834L399.611 277.732L401 409.214L151 273.566V140.695L272.528 206.436L256.556 215.232Z"/>
</mask>
<path d="M256.556 215.232L166.972 166.621L166.278 265.232L384.565 383.288V285.834L399.611 277.732L401 409.214L151 273.566V140.695L272.528 206.436L256.556 215.232Z" fill="black" stroke="#E6F1FF" stroke-width="36" mask="url(#path-2-inside-1_103_26)"/>
</g>
<g id="Vector 2">
<mask id="path-3-inside-2_103_26" fill="white">
<path d="M151 276.343L273.222 342.315C226.44 368.735 199.059 383.752 151 407.824V276.343Z"/>
<path d="M293.824 330.972L278.083 322.176L384.796 265L385.028 166.157L186.648 272.87L170.444 264.074L400.537 140V273.796L293.824 330.972Z"/>
</mask>
<path d="M151 276.343L273.222 342.315C226.44 368.735 199.059 383.752 151 407.824V276.343Z" fill="black"/>
<path d="M293.824 330.972L278.083 322.176L384.796 265L385.028 166.157L186.648 272.87L170.444 264.074L400.537 140V273.796L293.824 330.972Z" fill="black"/>
<path d="M151 276.343L273.222 342.315C226.44 368.735 199.059 383.752 151 407.824V276.343Z" stroke="#FF3040" stroke-width="36" mask="url(#path-3-inside-2_103_26)"/>
<path d="M293.824 330.972L278.083 322.176L384.796 265L385.028 166.157L186.648 272.87L170.444 264.074L400.537 140V273.796L293.824 330.972Z" stroke="#FF3040" stroke-width="36" mask="url(#path-3-inside-2_103_26)"/>
</g>
</g>
</g>
</g>
</svg>
