<svg xmlns="http://www.w3.org/2000/svg" width="244" height="263" fill="none" viewBox="0 0 244 263"><path stroke="#fff" stroke-width="4" d="M16.5278 24.1988L13.5975 22.6087L13.574 25.9426L12.8969 122.095L12.8884 123.296L13.9454 123.868L226.789 238.98L229.741 240.576V237.221V143.392L240.447 137.627L241.73 259.12L2 129.044V4.03303L114.323 64.7944L102.916 71.0763L16.5278 24.1988Z"/><path stroke="#FF3040" stroke-width="4" d="M13.1225 236.543V239.903L16.076 238.302L88.0773 199.254L91.3064 197.503L88.083 195.741L51.7439 175.878L51.7321 175.872L16.0701 156.687L13.1225 155.101V158.448V236.543ZM49.8371 179.395L82.9412 197.489L17.1225 233.184V161.795L49.8254 179.388L49.8371 179.395ZM227.245 23.7438L34.7636 127.284L23.1625 120.986L241.315 3.35071V129.263L139.283 183.93L128.08 177.67L228.911 123.646L229.964 123.082L229.966 121.888L230.192 25.5098L230.2 22.1541L227.245 23.7438ZM2 257.905V136.295L115.037 197.309C72.2707 221.44 45.9723 235.83 2 257.905Z"/></svg>